<svg xmlns="http://www.w3.org/2000/svg">
    <symbol id="dishes" fill="none" viewBox="0 0 18 18">
        <path fill="#393B44" d="M0 11.637a2.637 2.637 0 0 0 2.637 2.636h.527v1.055h11.637v-1.055h.527c1.456 0 2.672-1.18 2.672-2.636v-.528H0v.528Zm0-4.219a2.637 2.637 0 0 0 2.637 2.637h12.691c1.456 0 2.672-1.18 2.672-2.637v-.527H0v.527Zm0-4.219a2.637 2.637 0 0 0 2.637 2.637h12.691c1.456 0 2.672-1.18 2.672-2.637v-.527H0v.527Z"/>
    </symbol>

    <symbol id="network" fill="#393B44" viewBox="0 0 16 16">
        <path d="M0 11.5a.5.5 0 0 1 .5-.5h2a.5.5 0 0 1 .5.5v2a.5.5 0 0 1-.5.5h-2a.5.5 0 0 1-.5-.5v-2zm4-3a.5.5 0 0 1 .5-.5h2a.5.5 0 0 1 .5.5v5a.5.5 0 0 1-.5.5h-2a.5.5 0 0 1-.5-.5v-5zm4-3a.5.5 0 0 1 .5-.5h2a.5.5 0 0 1 .5.5v8a.5.5 0 0 1-.5.5h-2a.5.5 0 0 1-.5-.5v-8zm4-3a.5.5 0 0 1 .5-.5h2a.5.5 0 0 1 .5.5v11a.5.5 0 0 1-.5.5h-2a.5.5 0 0 1-.5-.5v-11z"/>
    </symbol>

    <symbol id="time" fill="#393B44" viewBox="0 0 16 16">
        <path d="M8 3.5a.5.5 0 0 0-1 0V9a.5.5 0 0 0 .252.434l3.5 2a.5.5 0 0 0 .496-.868L8 8.71V3.5z"/>
        <path d="M8 16A8 8 0 1 0 8 0a8 8 0 0 0 0 16zm7-8A7 7 0 1 1 1 8a7 7 0 0 1 14 0z"/>
    </symbol>

    <symbol id="chevron" fill="#393B44"  viewBox="0 0 16 16">
        <path fill-rule="evenodd" d="M1.646 4.646a.5.5 0 0 1 .708 0L8 10.293l5.646-5.647a.5.5 0 0 1 .708.708l-6 6a.5.5 0 0 1-.708 0l-6-6a.5.5 0 0 1 0-.708z"/>
    </symbol>

    <symbol id="search" fill="#393B44" viewBox="0 0 16 16" >
        <path d="M11.742 10.344a6.5 6.5 0 1 0-1.397 1.398h-.001c.03.04.062.078.098.115l3.85 3.85a1 1 0 0 0 1.415-1.414l-3.85-3.85a1.007 1.007 0 0 0-.115-.1zM12 6.5a5.5 5.5 0 1 1-11 0 5.5 5.5 0 0 1 11 0z"/>
    </symbol>

    <!-- <symbol id="menu" fill="#393B44" width="50" height="50" viewBox="0 0 314 221" >
        <path fill="#393B44" d="M0 156.542c0 25.427 20.593 46.041 45.996 46.041h9.2V221H258.19v-18.417h9.2c25.403 0 46.609-20.614 46.609-46.041v-9.209H0v9.209Zm0-73.667c0 25.427 20.593 46.042 45.996 46.042h221.395c25.403 0 46.609-20.615 46.609-46.042v-9.208H0v9.208ZM0 9.208C0 34.636 20.593 55.25 45.996 55.25h221.395C292.794 55.25 314 34.636 314 9.208V0H0v9.208Z"/>
    </symbol> -->

    <symbol id="heart" fill="#393B44" viewBox="0 0 16 16">
        <path d="m8 2.748-.717-.737C5.6.281 2.514.878 1.4 3.053c-.523 1.023-.641 2.5.314 4.385.92 1.815 2.834 3.989 6.286 6.357 3.452-2.368 5.365-4.542 6.286-6.357.955-1.886.838-3.362.314-4.385C13.486.878 10.4.28 8.717 2.01L8 2.748zM8 15C-7.333 4.868 3.279-3.04 7.824 1.143c.06.055.119.112.176.171a3.12 3.12 0 0 1 .176-.17C12.72-3.042 23.333 4.867 8 15z"/>
    </symbol>

    <symbol id="print" fill="#393B44" viewBox="0 0 16 16">
        <path d="M2.5 8a.5.5 0 1 0 0-1 .5.5 0 0 0 0 1z"/>
        <path d="M5 1a2 2 0 0 0-2 2v2H2a2 2 0 0 0-2 2v3a2 2 0 0 0 2 2h1v1a2 2 0 0 0 2 2h6a2 2 0 0 0 2-2v-1h1a2 2 0 0 0 2-2V7a2 2 0 0 0-2-2h-1V3a2 2 0 0 0-2-2H5zM4 3a1 1 0 0 1 1-1h6a1 1 0 0 1 1 1v2H4V3zm1 5a2 2 0 0 0-2 2v1H2a1 1 0 0 1-1-1V7a1 1 0 0 1 1-1h12a1 1 0 0 1 1 1v3a1 1 0 0 1-1 1h-1v-1a2 2 0 0 0-2-2H5zm7 2v3a1 1 0 0 1-1 1H5a1 1 0 0 1-1-1v-3a1 1 0 0 1 1-1h6a1 1 0 0 1 1 1z"/>
    </symbol>

    <symbol id="knife" fill="none" width="148" height="16" viewBox="0 0 148 16">
        <g clip-path="url(#a)"><path fill="currentColor" d="M91.133.49a.648.648 0 0 0-.879-.44l-9.238 3.958-8.134 3.517c-5.496 2.199-11.649 5.277-11.649 5.277a13.444 13.444 0 0 0-4.4 2.858c2.418.44 8.794-1.319 8.794-1.319 3.518-1.1 15.83-5.716 15.83-5.716a.3.3 0 0 0 0-.44 2.126 2.126 0 0 1 .22-2.858 5.256 5.256 0 0 1 1.978-.22s3.3-.22 5.056-1.979c0 0 .66-.66 1.1-.66a.473.473 0 0 1 .44.44s0 .22.22 0 .66-.44.88-.879A1.388 1.388 0 0 0 91.132.49Z"/><mask id="b" fill="#fff"><path d="M.833 9.571h50-50Z"/></mask><path fill="currentColor" d="M.833 10.071h50v-1h-50v1Z" mask="url(#b)"/><mask id="c" fill="#fff"><path d="M97.833 9.571h50-50Z"/></mask><path fill="currentColor" d="M97.833 10.071h50v-1h-50v1Z" mask="url(#c)"/></g><defs><clipPath id="a"><path fill="#fff" d="M.833 0h147v15.731h-147z"/></clipPath></defs>
    </symbol>

    <symbol id="line" >
        <path fill="#393B44" d="M.5 1.533h50v-1H.5v1Z" />
    </symbol>
</svg>



