<svg width="44" height="45" viewBox="0 0 44 45" fill="none" xmlns="http://www.w3.org/2000/svg">
<path d="M24.5897 5.87089C24.5897 5.87089 24.6147 5.77213 24.6398 5.74744C27.0945 6.73508 28.5724 9.27825 28.4973 12.1424C28.4973 12.4881 28.4472 12.8831 28.372 13.2288C28.0464 15.1794 27.2198 17.0559 25.8672 18.883C22.686 23.278 18.6281 26.1916 13.8188 27.5496C13.8188 27.5496 12.2908 27.8459 12.1155 27.8459H12.0905C11.9402 27.8706 11.7398 27.8952 11.6145 27.8212C11.5644 27.7718 11.5143 27.6977 11.5143 27.6236C11.5143 27.5743 11.5394 27.5002 11.5644 27.4755C11.6646 27.3767 11.84 27.4261 11.9903 27.4508H12.0905C12.9421 27.5002 13.7186 27.2039 14.4951 26.9076L14.6955 26.8088C19.1041 25.2039 22.686 22.3892 25.3912 18.4633L25.9674 17.5991C27.1446 15.772 27.7458 13.9695 27.8209 12.093C27.9211 10.1671 27.2448 8.29061 26.0175 7.13013C25.8171 6.93261 25.5916 6.73508 25.3662 6.58693C24.4394 5.96966 23.3122 5.67337 22.0598 5.74744C20.3064 5.87089 18.7033 6.66101 16.9248 8.24123C15.3468 9.6733 14.0693 11.5004 13.0423 13.8461C11.4893 17.4016 10.6126 21.3028 10.3371 25.7718C10.287 26.6854 10.287 27.5496 10.287 28.4631C10.312 30.8582 10.4873 33.3273 10.7128 35.9692C10.7128 36.068 10.7378 36.142 10.7378 36.2408C10.7879 36.9568 10.8631 37.6976 10.7879 38.4136V38.5124C10.7629 38.8333 10.7378 39.2037 10.3872 39.3765C10.2369 39.4753 10.0615 39.5 9.88618 39.5C9.61065 39.5 9.33511 39.4012 9.15977 39.2284C8.35822 38.4383 7.90735 37.4013 7.55667 36.463C6.67997 34.1174 6.25414 31.673 5.95356 29.352C5.62793 26.7841 5.47764 24.0681 5.50268 20.6361V19.4509C5.52773 17.5497 5.80327 15.5498 6.27919 13.4757C6.40443 13.0066 6.47958 12.4881 6.57977 12.0189C6.83026 10.8585 7.05569 9.6733 7.48152 8.56221C7.48152 8.53752 7.50657 8.51283 7.53162 8.46345L7.63181 8.36468C7.63181 8.36468 7.68191 8.19185 7.7821 8.16715C7.8322 8.14246 7.90735 8.14246 7.95744 8.16715C8.10773 8.21654 8.05764 8.36468 8.00754 8.46345C7.58171 9.84614 7.30618 11.3029 7.08074 12.6856L6.80521 14.1671C6.55472 15.4016 6.45453 16.6855 6.32929 17.9201C6.32929 18.0189 6.30424 18.1176 6.30424 18.2164C6.20404 19.1053 6.15395 20.0188 6.15395 21.0065C6.1289 21.9941 6.15395 23.0558 6.20404 24.2163C6.35433 27.4755 6.65492 30.1421 7.15589 32.6359C7.05569 33.0557 7.18094 33.3766 7.30618 33.7223C7.35628 33.8458 7.43142 33.9939 7.45647 34.1421C7.7821 35.3766 8.18288 36.8087 8.90929 38.0432C9.15977 38.4383 9.38521 38.8333 9.71084 39.179C9.76094 39.2284 9.86113 39.2284 9.91123 39.2284C10.0365 39.2037 10.1617 39.0803 10.1868 38.9568C10.287 38.6852 10.287 38.3889 10.287 38.0926C10.287 37.3025 10.2369 36.4877 10.1617 35.7223L10.0615 34.9322C9.88618 32.71 9.71084 30.4384 9.71084 28.1422C9.71084 27.5002 9.73589 26.8335 9.76094 26.1916C10.0866 20.4633 11.314 15.7967 13.5182 11.8461C14.8959 9.37701 16.6994 7.54988 18.9037 6.3894C20.8074 5.37707 22.686 5.22893 24.5145 5.94497C24.5145 5.92028 24.5145 5.89558 24.5396 5.8462L24.5897 5.87089Z" fill="#393B44" stroke="#fff" stroke-width="0.5"/>
<path d="M38.4048 12.5255C38.4048 12.5255 38.4048 12.6731 38.3572 12.6977H38.3334C38.3334 12.6977 38.1668 12.8453 38.0716 12.8699C36.5245 13.3619 35.3106 14.4196 34.2157 15.3789C33.8349 15.6987 33.6445 16.1168 33.454 16.5596L33.2874 16.904C32.6924 18.1093 32.1211 18.9456 31.4309 19.5851C31.3357 19.6835 31.2405 19.7573 31.1215 19.8311C30.9549 19.9295 30.7883 19.9295 30.6454 19.8065C30.4788 19.6589 30.5502 19.4622 30.6216 19.3146C30.7407 18.9948 30.9073 18.675 31.1691 18.2569C31.7165 17.4205 32.3592 16.6334 33.1684 15.7971C33.5731 15.3789 33.7159 14.2966 33.454 13.78C33.3112 13.5341 33.1208 13.4603 32.7876 13.5095C32.1212 13.657 31.6213 14.0752 31.0977 14.518C30.5026 15.0591 29.9552 15.6987 29.503 16.4612C29.384 16.6334 29.3364 16.8056 29.3364 17.027C29.2888 18.0601 29.2411 19.1178 29.2411 20.1509V21.4792C29.2173 22.9305 29.2411 24.4063 29.2649 25.8084V27.4073C29.2649 28.465 29.2888 29.5227 29.3126 30.5558L29.4078 32.3023C29.4316 33.3354 29.4316 34.2209 29.4078 35.0572V35.1556C29.4078 35.3032 29.4078 35.4754 29.1459 35.5H29.0983C28.8603 35.5 28.8127 35.3278 28.7889 35.1802L28.6937 34.8359L28.5985 34.6637C28.5985 34.6637 28.5509 34.4915 28.5985 34.4177C28.6223 34.3931 28.6937 34.3685 28.7651 34.3685C28.7889 34.3685 28.8127 34.3685 28.8127 34.3439C28.8365 34.3193 28.8365 34.2455 28.8365 34.1963V34.0979L28.7413 31.7365L28.5747 26.9645C28.4795 24.8983 28.4795 22.7829 28.5509 20.6921V19.7081C28.5509 19.1424 28.5509 18.552 28.5985 17.9863C28.6937 16.904 28.7413 15.7479 28.7651 14.5672L28.8603 12.7715C28.8841 11.886 28.9079 10.9759 28.9079 10.0658V9.94276C28.9079 9.94276 28.9079 9.67219 29.0031 9.59839C29.0507 9.5492 29.1221 9.5 29.1935 9.5C29.2649 9.5 29.3364 9.5246 29.384 9.59839C29.4792 9.69678 29.4792 9.84437 29.4792 9.94276V10.0412C29.5744 10.9021 29.5268 11.763 29.503 12.5747V13.1159C29.503 13.4603 29.4792 13.8292 29.4554 14.1736C29.4316 14.764 29.4078 15.3543 29.4078 15.9447V16.043C30.0028 15.1575 30.5502 14.5426 31.1453 14.0752C31.5261 13.78 31.9545 13.4849 32.4544 13.3373C32.8828 13.2143 33.2874 13.2881 33.5731 13.4849C33.8587 13.6816 34.0253 14.0506 34.0253 14.4934V14.9361L34.3585 14.6656L35.2392 13.9276C36.2388 13.1405 37.1195 12.6239 38.0478 12.3534C38.143 12.3288 38.2144 12.3042 38.3096 12.3042C38.4048 12.3042 38.4762 12.3534 38.5 12.4517L38.381 12.5747L38.4048 12.5255ZM32.5496 17.1991C32.0021 17.8141 31.5023 18.429 31.1691 19.167C31.6927 18.675 32.145 17.9863 32.5496 17.1991Z" fill="#393B44" stroke="#fff" stroke-width="0.5"/>
<rect x="1.2" y="1.7" width="41.6" height="41.6" stroke="#fff" stroke-width="1.6"/>
</svg>
